<svg xmlns="http://www.w3.org/2000/svg" width="1080" height="1080" viewBox="0 0 1080 1080" role="img">
<title>스노우플레이크 · 지표</title>
<defs>
  <linearGradient id="bg" x1="0" y1="0" x2="0.6" y2="1">
    <stop offset="0" stop-color="#FBF9FF"/><stop offset="1" stop-color="#EFEAFC"/>
  </linearGradient>
  <linearGradient id="line" x1="0" y1="0" x2="1" y2="0">
    <stop offset="0" stop-color="#4A6CF7"/><stop offset="0.5" stop-color="#B455C4"/><stop offset="1" stop-color="#E0568A"/>
  </linearGradient>
  <linearGradient id="dom" x1="0" y1="0" x2="1" y2="0">
    <stop offset="0" stop-color="#4A6CF7"/><stop offset="0.55" stop-color="#B455C4"/><stop offset="1" stop-color="#E0568A"/>
  </linearGradient>
  <radialGradient id="m1" cx="0.5" cy="0.5" r="0.5">
    <stop offset="0" stop-color="#4A6CF7" stop-opacity="0.13"/><stop offset="1" stop-color="#4A6CF7" stop-opacity="0"/>
  </radialGradient>
  <radialGradient id="m2" cx="0.5" cy="0.5" r="0.5">
    <stop offset="0" stop-color="#E0568A" stop-opacity="0.13"/><stop offset="1" stop-color="#E0568A" stop-opacity="0"/>
  </radialGradient>
</defs>
<rect width="1080" height="1080" fill="url(#bg)"/>
<rect x="-200" y="-160" width="900" height="900" fill="url(#m1)"/>
<rect x="440" y="500" width="940" height="940" fill="url(#m2)"/>
<rect x="52" y="288" width="976" height="400" rx="52" fill="#FFFFFF"/>
<g font-family="Pretendard, Poppins, Arial, sans-serif">
  <text x="92" y="326" font-size="24" font-weight="700" letter-spacing="-0.5" fill="#2B2B3A">SNOW 일봉</text>
  <text x="988" y="326" text-anchor="end" font-size="22" font-weight="600" fill="#B9B3D6">최근 15일</text>
</g>
<line x1="92" y1="568.0" x2="988" y2="568.0" stroke="#F1EDFA" stroke-width="2"/><line x1="92" y1="494.7" x2="988" y2="494.7" stroke="#F1EDFA" stroke-width="2"/><line x1="92" y1="421.5" x2="988" y2="421.5" stroke="#F1EDFA" stroke-width="2"/><line x1="92" y1="346.0" x2="988" y2="346.0" stroke="#F1EDFA" stroke-width="2"/><line x1="121.9" y1="466.4" x2="121.9" y2="466.4" stroke="#E0568A" stroke-width="2"/><rect x="105.1" y="466.4" width="33.5" height="2.0" rx="1.4" fill="#E0568A"/><rect x="105.1" y="641.4" width="33.5" height="6.6" rx="1.4" fill="#E0568A" opacity="0.3"/><line x1="181.6" y1="462.7" x2="181.6" y2="466.4" stroke="#E0568A" stroke-width="2"/><rect x="164.9" y="462.7" width="33.5" height="3.7" rx="1.4" fill="#E0568A"/><rect x="164.9" y="640.1" width="33.5" height="7.9" rx="1.4" fill="#E0568A" opacity="0.3"/><line x1="241.3" y1="462.7" x2="241.3" y2="477.7" stroke="#5A8FD6" stroke-width="2"/><rect x="224.6" y="462.7" width="33.5" height="15.1" rx="1.4" fill="#5A8FD6"/><rect x="224.6" y="637.7" width="33.5" height="10.3" rx="1.4" fill="#5A8FD6" opacity="0.3"/><line x1="301.1" y1="477.7" x2="301.1" y2="478.7" stroke="#5A8FD6" stroke-width="2"/><rect x="284.3" y="477.7" width="33.5" height="2.0" rx="1.4" fill="#5A8FD6"/><rect x="284.3" y="638.0" width="33.5" height="10.0" rx="1.4" fill="#5A8FD6" opacity="0.3"/><line x1="360.8" y1="478.7" x2="360.8" y2="490.5" stroke="#5A8FD6" stroke-width="2"/><rect x="344.1" y="478.7" width="33.5" height="11.7" rx="1.4" fill="#5A8FD6"/><rect x="344.1" y="639.9" width="33.5" height="8.1" rx="1.4" fill="#5A8FD6" opacity="0.3"/><line x1="420.5" y1="454.3" x2="420.5" y2="490.5" stroke="#E0568A" stroke-width="2"/><rect x="403.8" y="454.3" width="33.5" height="36.2" rx="1.4" fill="#E0568A"/><rect x="403.8" y="639.2" width="33.5" height="8.8" rx="1.4" fill="#E0568A" opacity="0.3"/><line x1="480.3" y1="454.3" x2="480.3" y2="485.8" stroke="#5A8FD6" stroke-width="2"/><rect x="463.5" y="454.3" width="33.5" height="31.5" rx="1.4" fill="#5A8FD6"/><rect x="463.5" y="638.4" width="33.5" height="9.6" rx="1.4" fill="#5A8FD6" opacity="0.3"/><line x1="540.0" y1="485.8" x2="540.0" y2="503.9" stroke="#5A8FD6" stroke-width="2"/><rect x="523.3" y="485.8" width="33.5" height="18.1" rx="1.4" fill="#5A8FD6"/><rect x="523.3" y="636.6" width="33.5" height="11.4" rx="1.4" fill="#5A8FD6" opacity="0.3"/><line x1="599.7" y1="503.9" x2="599.7" y2="509.1" stroke="#5A8FD6" stroke-width="2"/><rect x="583.0" y="503.9" width="33.5" height="5.2" rx="1.4" fill="#5A8FD6"/><rect x="583.0" y="640.1" width="33.5" height="7.9" rx="1.4" fill="#5A8FD6" opacity="0.3"/><line x1="659.5" y1="465.8" x2="659.5" y2="509.1" stroke="#E0568A" stroke-width="2"/><rect x="642.7" y="465.8" width="33.5" height="43.3" rx="1.4" fill="#E0568A"/><rect x="642.7" y="637.6" width="33.5" height="10.4" rx="1.4" fill="#E0568A" opacity="0.3"/><line x1="719.2" y1="465.8" x2="719.2" y2="469.3" stroke="#5A8FD6" stroke-width="2"/><rect x="702.5" y="465.8" width="33.5" height="3.5" rx="1.4" fill="#5A8FD6"/><rect x="702.5" y="640.1" width="33.5" height="7.9" rx="1.4" fill="#5A8FD6" opacity="0.3"/><line x1="778.9" y1="458.5" x2="778.9" y2="469.3" stroke="#E0568A" stroke-width="2"/><rect x="762.2" y="458.5" width="33.5" height="10.8" rx="1.4" fill="#E0568A"/><rect x="762.2" y="636.7" width="33.5" height="11.3" rx="1.4" fill="#E0568A" opacity="0.3"/><line x1="838.7" y1="458.5" x2="838.7" y2="495.1" stroke="#5A8FD6" stroke-width="2"/><rect x="821.9" y="458.5" width="33.5" height="36.6" rx="1.4" fill="#5A8FD6"/><rect x="821.9" y="637.7" width="33.5" height="10.3" rx="1.4" fill="#5A8FD6" opacity="0.3"/><line x1="898.4" y1="495.1" x2="898.4" y2="539.1" stroke="#5A8FD6" stroke-width="2"/><rect x="881.7" y="495.1" width="33.5" height="44.0" rx="1.4" fill="#5A8FD6"/><rect x="881.7" y="618.1" width="33.5" height="29.9" rx="1.4" fill="#5A8FD6" opacity="0.3"/><line x1="958.1" y1="379.7" x2="958.1" y2="539.1" stroke="#E0568A" stroke-width="2"/><rect x="941.4" y="379.7" width="33.5" height="159.4" rx="1.4" fill="#E0568A"/><rect x="941.4" y="592.0" width="33.5" height="56.0" rx="1.4" fill="#E0568A" opacity="0.3"/>
<g font-family="Pretendard, Poppins, Arial, sans-serif">
  <text x="80" y="118" font-size="30" fill="#B455C4">✦</text>
  <text x="126" y="118" font-size="25" font-weight="700" letter-spacing="2.5" fill="#8B5BD6">SNAPVEST AI SIGNAL</text>
  <text x="1000" y="118" text-anchor="end" font-size="25" font-weight="600" fill="#B9B3D6">09.03</text>
  <text x="80" y="222" font-size="60" font-weight="700" letter-spacing="-2.5" fill="#2B2B3A">지표는 <tspan fill="#B455C4">지금 어디쯤</tspan>일까?</text>
  <rect x="80" y="248" width="220" height="12" rx="6" fill="url(#line)"/>

  <text x="80" y="754" font-size="30" font-weight="700" letter-spacing="-0.5" fill="#2B2B3A">MFI</text>
  <text x="166" y="754" font-size="27" font-weight="700" fill="#E0568A">49</text>
  <text x="1000" y="754" text-anchor="end" font-size="25" font-weight="600" fill="#8B85A8">자금 흐름 중립</text>
  <rect x="80" y="772" width="920" height="28" rx="14" fill="#E7E1F7"/>
  <rect x="80" y="772" width="451" height="28" rx="14" fill="url(#line)"/>
  <circle cx="531" cy="786" r="21" fill="#FFFFFF" stroke="#E0568A" stroke-width="6"/>
  <text x="80" y="856" font-size="30" font-weight="700" letter-spacing="-0.5" fill="#2B2B3A">RSI</text>
  <text x="160" y="856" font-size="27" font-weight="700" fill="#B455C4">60</text>
  <text x="1000" y="856" text-anchor="end" font-size="25" font-weight="600" fill="#8B85A8">중립 구간</text>
  <rect x="80" y="874" width="920" height="28" rx="14" fill="#E7E1F7"/>
  <rect x="80" y="874" width="552" height="28" rx="14" fill="url(#line)"/>
  <circle cx="632" cy="888" r="21" fill="#FFFFFF" stroke="#B455C4" stroke-width="6"/>
  <text x="80" y="958" font-size="30" font-weight="700" letter-spacing="-0.5" fill="#2B2B3A">볼린저밴드</text>
  <text x="264" y="958" font-size="27" font-weight="700" fill="#E0568A">1.19</text>
  <text x="1000" y="958" text-anchor="end" font-size="25" font-weight="600" fill="#8B85A8">상단 밴드 돌파</text>
  <rect x="80" y="976" width="920" height="28" rx="14" fill="#E7E1F7"/>
  <rect x="80" y="976" width="920" height="28" rx="14" fill="url(#line)"/>
  <circle cx="1000" cy="990" r="21" fill="#FFFFFF" stroke="#E0568A" stroke-width="6"/>

  <text x="80" y="1046" font-size="25" font-weight="600" fill="#B9B3D6">8/14~9/3 실제 종가·거래량으로 계산했어요</text>
  <text x="1000" y="1046" text-anchor="end" font-size="27" font-weight="700" fill="url(#dom)">snapvestai.com</text>
</g>
</svg>
