<svg xmlns="http://www.w3.org/2000/svg" width="1080" height="1080" viewBox="0 0 1080 1080" role="img">
<title>브렌엑스 · 지표</title>
<defs>
  <linearGradient id="bg" x1="0" y1="0" x2="0.6" y2="1">
    <stop offset="0" stop-color="#FBF9FF"/><stop offset="1" stop-color="#EFEAFC"/>
  </linearGradient>
  <linearGradient id="line" x1="0" y1="0" x2="1" y2="0">
    <stop offset="0" stop-color="#4A6CF7"/><stop offset="0.5" stop-color="#B455C4"/><stop offset="1" stop-color="#E0568A"/>
  </linearGradient>
  <linearGradient id="dom" x1="0" y1="0" x2="1" y2="0">
    <stop offset="0" stop-color="#4A6CF7"/><stop offset="0.55" stop-color="#B455C4"/><stop offset="1" stop-color="#E0568A"/>
  </linearGradient>
  <radialGradient id="m1" cx="0.5" cy="0.5" r="0.5">
    <stop offset="0" stop-color="#4A6CF7" stop-opacity="0.13"/><stop offset="1" stop-color="#4A6CF7" stop-opacity="0"/>
  </radialGradient>
  <radialGradient id="m2" cx="0.5" cy="0.5" r="0.5">
    <stop offset="0" stop-color="#E0568A" stop-opacity="0.13"/><stop offset="1" stop-color="#E0568A" stop-opacity="0"/>
  </radialGradient>
</defs>
<rect width="1080" height="1080" fill="url(#bg)"/>
<rect x="-200" y="-160" width="900" height="900" fill="url(#m1)"/>
<rect x="440" y="500" width="940" height="940" fill="url(#m2)"/>
<rect x="52" y="288" width="976" height="400" rx="52" fill="#FFFFFF"/>
<g font-family="Pretendard, Poppins, Arial, sans-serif">
  <text x="92" y="326" font-size="24" font-weight="700" letter-spacing="-0.5" fill="#2B2B3A">BRNX 일봉</text>
  <text x="988" y="326" text-anchor="end" font-size="22" font-weight="600" fill="#B9B3D6">최근 16일</text>
</g>
<line x1="92" y1="568.0" x2="988" y2="568.0" stroke="#F1EDFA" stroke-width="2"/><line x1="92" y1="494.7" x2="988" y2="494.7" stroke="#F1EDFA" stroke-width="2"/><line x1="92" y1="421.5" x2="988" y2="421.5" stroke="#F1EDFA" stroke-width="2"/><line x1="92" y1="346.0" x2="988" y2="346.0" stroke="#F1EDFA" stroke-width="2"/><line x1="120.0" y1="526.4" x2="120.0" y2="553.9" stroke="#5A8FD6" stroke-width="2"/><rect x="104.3" y="529.0" width="31.4" height="14.5" rx="1.4" fill="#5A8FD6"/><rect x="104.3" y="629.8" width="31.4" height="18.2" rx="1.4" fill="#5A8FD6" opacity="0.3"/><line x1="176.0" y1="544.3" x2="176.0" y2="560.1" stroke="#5A8FD6" stroke-width="2"/><rect x="160.3" y="544.5" width="31.4" height="9.3" rx="1.4" fill="#5A8FD6"/><rect x="160.3" y="645.7" width="31.4" height="2.3" rx="1.4" fill="#5A8FD6" opacity="0.3"/><line x1="232.0" y1="521.5" x2="232.0" y2="554.1" stroke="#E0568A" stroke-width="2"/><rect x="216.3" y="545.6" width="31.4" height="5.7" rx="1.4" fill="#E0568A"/><rect x="216.3" y="638.0" width="31.4" height="10.0" rx="1.4" fill="#E0568A" opacity="0.3"/><line x1="288.0" y1="538.1" x2="288.0" y2="550.0" stroke="#E0568A" stroke-width="2"/><rect x="272.3" y="539.6" width="31.4" height="8.3" rx="1.4" fill="#E0568A"/><rect x="272.3" y="634.7" width="31.4" height="13.3" rx="1.4" fill="#E0568A" opacity="0.3"/><line x1="344.0" y1="518.9" x2="344.0" y2="532.6" stroke="#E0568A" stroke-width="2"/><rect x="328.3" y="525.9" width="31.4" height="2.0" rx="1.4" fill="#E0568A"/><rect x="328.3" y="640.1" width="31.4" height="7.9" rx="1.4" fill="#E0568A" opacity="0.3"/><line x1="400.0" y1="513.7" x2="400.0" y2="526.9" stroke="#5A8FD6" stroke-width="2"/><rect x="384.3" y="513.7" width="31.4" height="2.0" rx="1.4" fill="#5A8FD6"/><rect x="384.3" y="645.4" width="31.4" height="2.6" rx="1.4" fill="#5A8FD6" opacity="0.3"/><line x1="456.0" y1="473.5" x2="456.0" y2="502.6" stroke="#E0568A" stroke-width="2"/><rect x="440.3" y="478.5" width="31.4" height="16.1" rx="1.4" fill="#E0568A"/><rect x="440.3" y="638.9" width="31.4" height="9.1" rx="1.4" fill="#E0568A" opacity="0.3"/><line x1="512.0" y1="430.8" x2="512.0" y2="472.5" stroke="#5A8FD6" stroke-width="2"/><rect x="496.3" y="455.4" width="31.4" height="5.4" rx="1.4" fill="#5A8FD6"/><rect x="496.3" y="641.1" width="31.4" height="6.9" rx="1.4" fill="#5A8FD6" opacity="0.3"/><line x1="568.0" y1="354.1" x2="568.0" y2="538.1" stroke="#5A8FD6" stroke-width="2"/><rect x="552.3" y="444.0" width="31.4" height="78.5" rx="1.4" fill="#5A8FD6"/><rect x="552.3" y="592.0" width="31.4" height="56.0" rx="1.4" fill="#5A8FD6" opacity="0.3"/><line x1="624.0" y1="512.4" x2="624.0" y2="544.5" stroke="#E0568A" stroke-width="2"/><rect x="608.3" y="521.7" width="31.4" height="2.0" rx="1.4" fill="#E0568A"/><rect x="608.3" y="615.5" width="31.4" height="32.5" rx="1.4" fill="#E0568A" opacity="0.3"/><line x1="680.0" y1="496.3" x2="680.0" y2="522.0" stroke="#5A8FD6" stroke-width="2"/><rect x="664.3" y="505.9" width="31.4" height="5.7" rx="1.4" fill="#5A8FD6"/><rect x="664.3" y="636.8" width="31.4" height="11.2" rx="1.4" fill="#5A8FD6" opacity="0.3"/><line x1="736.0" y1="522.8" x2="736.0" y2="537.5" stroke="#E0568A" stroke-width="2"/><rect x="720.3" y="531.3" width="31.4" height="2.6" rx="1.4" fill="#E0568A"/><rect x="720.3" y="635.1" width="31.4" height="12.9" rx="1.4" fill="#E0568A" opacity="0.3"/><line x1="792.0" y1="518.9" x2="792.0" y2="543.8" stroke="#5A8FD6" stroke-width="2"/><rect x="776.3" y="521.7" width="31.4" height="18.9" rx="1.4" fill="#5A8FD6"/><rect x="776.3" y="636.0" width="31.4" height="12.0" rx="1.4" fill="#5A8FD6" opacity="0.3"/><line x1="848.0" y1="536.2" x2="848.0" y2="550.0" stroke="#5A8FD6" stroke-width="2"/><rect x="832.3" y="536.8" width="31.4" height="7.0" rx="1.4" fill="#5A8FD6"/><rect x="832.3" y="644.1" width="31.4" height="3.9" rx="1.4" fill="#5A8FD6" opacity="0.3"/><line x1="904.0" y1="548.2" x2="904.0" y2="566.3" stroke="#5A8FD6" stroke-width="2"/><rect x="888.3" y="549.2" width="31.4" height="15.3" rx="1.4" fill="#5A8FD6"/><rect x="888.3" y="627.1" width="31.4" height="20.9" rx="1.4" fill="#5A8FD6" opacity="0.3"/><line x1="960.0" y1="548.2" x2="960.0" y2="561.6" stroke="#5A8FD6" stroke-width="2"/><rect x="944.3" y="557.8" width="31.4" height="2.0" rx="1.4" fill="#5A8FD6"/><rect x="944.3" y="646.5" width="31.4" height="1.5" rx="1.4" fill="#5A8FD6" opacity="0.3"/>
<g font-family="Pretendard, Poppins, Arial, sans-serif">
  <text x="80" y="118" font-size="30" fill="#B455C4">✦</text>
  <text x="126" y="118" font-size="25" font-weight="700" letter-spacing="2.5" fill="#8B5BD6">SNAPVEST AI SIGNAL</text>
  <text x="1000" y="118" text-anchor="end" font-size="25" font-weight="600" fill="#B9B3D6">09.08</text>
  <text x="80" y="222" font-size="60" font-weight="700" letter-spacing="-2.5" fill="#2B2B3A">지표는 <tspan fill="#B455C4">지금 어디쯤</tspan>일까?</text>
  <rect x="80" y="248" width="220" height="12" rx="6" fill="url(#line)"/>

  <text x="80" y="754" font-size="30" font-weight="700" letter-spacing="-0.5" fill="#2B2B3A">MFI</text>
  <text x="166" y="754" font-size="27" font-weight="700" fill="#E0568A">25</text>
  <text x="1000" y="754" text-anchor="end" font-size="25" font-weight="600" fill="#8B85A8">자금 유출 우위</text>
  <rect x="80" y="772" width="920" height="28" rx="14" fill="#E7E1F7"/>
  <rect x="80" y="772" width="230" height="28" rx="14" fill="url(#line)"/>
  <circle cx="310" cy="786" r="21" fill="#FFFFFF" stroke="#E0568A" stroke-width="6"/>
  <text x="80" y="856" font-size="30" font-weight="700" letter-spacing="-0.5" fill="#2B2B3A">RSI</text>
  <text x="160" y="856" font-size="27" font-weight="700" fill="#B455C4">48</text>
  <text x="1000" y="856" text-anchor="end" font-size="25" font-weight="600" fill="#8B85A8">중립 구간</text>
  <rect x="80" y="874" width="920" height="28" rx="14" fill="#E7E1F7"/>
  <rect x="80" y="874" width="442" height="28" rx="14" fill="url(#line)"/>
  <circle cx="522" cy="888" r="21" fill="#FFFFFF" stroke="#B455C4" stroke-width="6"/>
  <text x="80" y="958" font-size="30" font-weight="700" letter-spacing="-0.5" fill="#2B2B3A">볼린저밴드</text>
  <text x="264" y="958" font-size="27" font-weight="700" fill="#E0568A">0.23</text>
  <text x="1000" y="958" text-anchor="end" font-size="25" font-weight="600" fill="#8B85A8">하단 밴드 근처</text>
  <rect x="80" y="976" width="920" height="28" rx="14" fill="#E7E1F7"/>
  <rect x="80" y="976" width="212" height="28" rx="14" fill="url(#line)"/>
  <circle cx="292" cy="990" r="21" fill="#FFFFFF" stroke="#E0568A" stroke-width="6"/>

  <text x="80" y="1046" font-size="25" font-weight="600" fill="#B9B3D6">8/17~9/8 실제 시세 · 마지막 봉은 프리마켓이에요</text>
  <text x="1000" y="1046" text-anchor="end" font-size="27" font-weight="700" fill="url(#dom)">snapvestai.com</text>
</g>
</svg>
